<!DOCTYPE svg PUBLIC "-//W3C//DTD SVG 1.1//EN" "http://www.w3.org/Graphics/SVG/1.1/DTD/svg11.dtd">
<!-- Uploaded to: SVG Repo, www.svgrepo.com, Transformed by: SVG Repo Mixer Tools -->
<svg fill="#F4BF96" height="800px" width="800px" version="1.1" id="Capa_1" xmlns="http://www.w3.org/2000/svg" xmlns:xlink="http://www.w3.org/1999/xlink" viewBox="0 0 297 297" xml:space="preserve">
<g id="SVGRepo_bgCarrier" stroke-width="0"/>
<g id="SVGRepo_tracerCarrier" stroke-linecap="round" stroke-linejoin="round"/>
<g id="SVGRepo_iconCarrier"> <g> <path d="M234.894,117.484c-2.713,0-5.364,1.1-7.276,3.012c-1.911,1.911-3.001,4.563-3.001,7.266c0,2.713,1.09,5.354,3.001,7.276 c1.912,1.911,4.563,3.001,7.276,3.001c2.703,0,5.344-1.09,7.266-3.001c1.912-1.922,3.011-4.564,3.011-7.276 c0-2.703-1.099-5.354-3.011-7.266C240.248,118.584,237.597,117.484,234.894,117.484z"/> <path d="M200.333,117.484c-2.703,0-5.354,1.1-7.266,3.012c-1.912,1.911-3.012,4.563-3.012,7.266c0,2.713,1.1,5.354,3.012,7.276 c1.911,1.911,4.563,3.001,7.266,3.001c2.702,0,5.354-1.09,7.266-3.001c1.912-1.922,3.011-4.564,3.011-7.276 c0-2.703-1.099-5.354-3.011-7.266C205.686,118.584,203.035,117.484,200.333,117.484z"/> <path d="M165.782,117.484c-2.713,0-5.354,1.1-7.266,3.012c-1.922,1.911-3.012,4.563-3.012,7.266c0,2.713,1.09,5.354,3.012,7.276 c1.911,1.911,4.553,3.001,7.266,3.001c2.703,0,5.344-1.09,7.266-3.001c1.912-1.922,3.011-4.564,3.011-7.276 c0-2.703-1.099-5.354-3.011-7.266C171.136,118.584,168.485,117.484,165.782,117.484z"/> <path d="M234.884,152.046c-2.703,0-5.355,1.099-7.267,3.011c-1.911,1.912-3.011,4.564-3.011,7.266c0,2.703,1.1,5.355,3.011,7.266 c1.922,1.912,4.563,3.012,7.267,3.012c2.702,0,5.354-1.1,7.266-3.012c1.922-1.911,3.011-4.563,3.011-7.266 c0-2.702-1.089-5.354-3.011-7.266C240.237,153.145,237.586,152.046,234.884,152.046z"/> <path d="M200.333,152.046c-2.703,0-5.354,1.099-7.266,3.011c-1.912,1.912-3.012,4.564-3.012,7.266c0,2.703,1.1,5.355,3.012,7.266 c1.911,1.912,4.563,3.012,7.266,3.012c2.702,0,5.354-1.1,7.266-3.012c1.912-1.911,3.011-4.563,3.011-7.266 c0-2.702-1.099-5.354-3.011-7.266C205.686,153.145,203.035,152.046,200.333,152.046z"/> <path d="M165.782,152.046c-2.703,0-5.354,1.099-7.266,3.011c-1.912,1.912-3.012,4.564-3.012,7.266c0,2.703,1.1,5.355,3.012,7.266 c1.911,1.912,4.563,3.012,7.266,3.012c2.703,0,5.344-1.1,7.266-3.012c1.912-1.911,3.011-4.563,3.011-7.266 c0-2.702-1.099-5.354-3.011-7.266C171.136,153.145,168.485,152.046,165.782,152.046z"/> <path d="M234.884,186.606c-2.703,0-5.355,1.101-7.267,3.011c-1.911,1.912-3.011,4.563-3.011,7.266c0,2.703,1.1,5.355,3.011,7.267 c1.922,1.911,4.563,3.011,7.267,3.011c2.702,0,5.354-1.1,7.275-3.011c1.912-1.912,3.001-4.563,3.001-7.267 c0-2.702-1.089-5.354-3.001-7.266C240.248,187.707,237.597,186.606,234.884,186.606z"/> <path d="M200.333,186.606c-2.703,0-5.354,1.101-7.266,3.011c-1.912,1.912-3.012,4.563-3.012,7.266c0,2.703,1.1,5.355,3.012,7.267 c1.911,1.911,4.563,3.011,7.266,3.011c2.702,0,5.354-1.1,7.266-3.011c1.912-1.912,3.011-4.563,3.011-7.267 c0-2.702-1.099-5.354-3.011-7.266C205.686,187.707,203.035,186.606,200.333,186.606z"/> <path d="M165.782,186.606c-2.713,0-5.354,1.101-7.266,3.011c-1.922,1.912-3.012,4.563-3.012,7.266c0,2.703,1.09,5.355,3.012,7.267 c1.911,1.911,4.563,3.011,7.266,3.011c2.703,0,5.344-1.1,7.266-3.011c1.912-1.912,3.011-4.563,3.011-7.267 c0-2.702-1.099-5.354-3.011-7.266C171.136,187.707,168.485,186.606,165.782,186.606z"/> <path d="M96.67,152.046c-2.712,0-5.354,1.099-7.275,3.011c-1.911,1.912-3.001,4.564-3.001,7.266c0,2.703,1.09,5.355,3.001,7.266 c1.922,1.912,4.563,3.012,7.275,3.012c2.693,0,5.345-1.1,7.267-3.012c1.912-1.911,3.011-4.563,3.011-7.266 c0-2.702-1.099-5.354-3.011-7.266C102.015,153.145,99.374,152.046,96.67,152.046z"/> <path d="M62.109,152.046c-2.702,0-5.354,1.099-7.265,3.011c-1.912,1.912-3.012,4.564-3.012,7.266c0,2.703,1.1,5.355,3.012,7.266 c1.91,1.912,4.563,3.012,7.265,3.012c2.703,0,5.354-1.1,7.267-3.012c1.911-1.911,3.011-4.563,3.011-7.266 c0-2.702-1.1-5.354-3.011-7.266C67.464,153.145,64.813,152.046,62.109,152.046z"/> <path d="M96.66,186.606c-2.702,0-5.354,1.101-7.266,3.011c-1.911,1.912-3.011,4.563-3.011,7.266c0,2.703,1.1,5.355,3.011,7.267 c1.922,1.911,4.563,3.011,7.266,3.011c2.703,0,5.354-1.1,7.276-3.011c1.912-1.912,3.001-4.563,3.001-7.267 c0-2.702-1.089-5.354-3.001-7.266C102.024,187.707,99.374,186.606,96.66,186.606z"/> <path d="M62.109,186.606c-2.702,0-5.354,1.101-7.265,3.011c-1.912,1.912-3.012,4.563-3.012,7.266c0,2.703,1.1,5.355,3.012,7.267 c1.91,1.911,4.563,3.011,7.265,3.011c2.703,0,5.354-1.1,7.267-3.011c1.911-1.912,3.011-4.563,3.011-7.267 c0-2.702-1.1-5.354-3.011-7.266C67.464,187.707,64.813,186.606,62.109,186.606z"/> <path d="M286.724,221.163h-7.003V93.207c0-5.676-4.601-10.277-10.276-10.277h-58.833V68.925h57.105 c5.676,0,10.277-4.602,10.277-10.276V13.721c0-5.676-4.602-10.277-10.277-10.277H132.95c-5.676,0-10.276,4.602-10.276,10.277 v44.928c0,5.675,4.601,10.276,10.276,10.276h57.107V82.93H27.556c-5.676,0-10.276,4.602-10.276,10.277v127.956h-7.003 C4.602,221.163,0,225.765,0,231.44v51.84c0,5.675,4.602,10.276,10.276,10.276h276.447c5.675,0,10.276-4.602,10.276-10.276v-51.84 C297,225.765,292.398,221.163,286.724,221.163z M143.227,23.997H257.44v24.374H143.227V23.997z M37.833,103.484h221.334v117.679 H37.833V103.484z M276.446,241.717v31.286H20.554v-31.286H276.446z"/> </g> </g>
</svg>