<!DOCTYPE svg PUBLIC "-//W3C//DTD SVG 1.1//EN" "http://www.w3.org/Graphics/SVG/1.1/DTD/svg11.dtd">
<!-- Uploaded to: SVG Repo, www.svgrepo.com, Transformed by: SVG Repo Mixer Tools -->
<svg fill="#fba200" width="800px" height="800px" viewBox="0 0 24 24" xmlns="http://www.w3.org/2000/svg" id="update" class="icon glyph">
<g id="SVGRepo_bgCarrier" stroke-width="0"/>
<g id="SVGRepo_tracerCarrier" stroke-linecap="round" stroke-linejoin="round"/>
<g id="SVGRepo_iconCarrier">
<path d="M5,12A7,7,0,0,1,16.89,7H14a1,1,0,0,0,0,2h5.08A1,1,0,0,0,20,8V3a1,1,0,0,0-2,0V5.32A9,9,0,0,0,3,12a1,1,0,0,0,2,0Z"/>
<path d="M20,11a1,1,0,0,0-1,1A7,7,0,0,1,7.11,17H10a1,1,0,0,0,0-2H4.92A1,1,0,0,0,4,16v5a1,1,0,0,0,2,0V18.68A9,9,0,0,0,21,12,1,1,0,0,0,20,11Z"/>
</g>
</svg>